<svg id="Layer_1" data-name="Layer 1" xmlns="http://www.w3.org/2000/svg" viewBox="0 0 1069.84 1076.85"><defs><style>.cls-1{fill:#3eaae0;}.cls-2{fill:#7e7e7e;}.cls-3{fill:none;stroke:#3eaae0;stroke-miterlimit:10;stroke-width:11.57px;}</style></defs><title>unitycast logo</title><path class="cls-1" d="M254.61,1118.64q0,18.19-7.58,26.25t-24.5,8q-16.9,0-24.49-8t-7.58-26.25v-65.1H163.34v65.1c0,1.38,0,3.3.07,5.74a62.7,62.7,0,0,0,.8,8.22,76.88,76.88,0,0,0,2.24,9.73,54.22,54.22,0,0,0,4.23,10.29,47.56,47.56,0,0,0,18.66,19.47q13.72,8,33.19,8t33.19-8a47.65,47.65,0,0,0,18.67-19.47,54.88,54.88,0,0,0,4.23-10.29,78.52,78.52,0,0,0,2.23-9.73,62.7,62.7,0,0,0,.8-8.22c.05-2.44.08-4.36.08-5.74v-65.1H254.61Z" transform="translate(-163.34 -103.21)"/><polygon class="cls-1" points="235.99 950.32 235.99 1031.86 173.44 950.32 143.44 950.32 143.44 1073.66 161.79 1073.66 170.57 1073.66 170.57 991.17 233.91 1073.66 237.9 1073.66 263.11 1073.66 263.11 950.32 249.87 950.32 235.99 950.32"/><rect class="cls-1" x="291.2" y="950.32" width="27.13" height="123.34"/><polygon class="cls-1" points="338.42 977.45 374.96 977.45 374.96 1073.66 402.09 1073.66 402.09 977.45 438.79 977.45 438.79 950.32 338.42 950.32 338.42 977.45"/><polygon class="cls-1" points="550.64 950.32 516.33 999.31 482.03 950.32 449 950.32 502.77 1027.23 502.77 1073.66 529.89 1073.66 529.89 1027.23 583.82 950.32 566.43 950.32 550.64 950.32"/><path class="cls-1" d="M796.62,1088.64a38.41,38.41,0,0,1,11.89-8.06,36.15,36.15,0,0,1,14.6-2.95,37.56,37.56,0,0,1,14.44,2.79,35.72,35.72,0,0,1,12.05,8.22l19.14-19.31a62.41,62.41,0,0,0-20.58-13.72,64.35,64.35,0,0,0-50.26,0,63.1,63.1,0,0,0-34.31,34.31,64.86,64.86,0,0,0,0,50.42,62.81,62.81,0,0,0,13.73,20.42,75.09,75.09,0,0,0,9.73,8,59,59,0,0,0,10.85,5.9,64.35,64.35,0,0,0,50.26,0,61.05,61.05,0,0,0,20.58-13.88l-19.14-19.15a35.43,35.43,0,0,1-12.05,8.22,37.56,37.56,0,0,1-14.44,2.79,36.15,36.15,0,0,1-14.6-2.95,37.9,37.9,0,0,1-20-20,37.41,37.41,0,0,1,0-29.12A38.41,38.41,0,0,1,796.62,1088.64Z" transform="translate(-163.34 -103.21)"/><path class="cls-1" d="M929.7,1053.54l-53.46,123.34h29.52l11.49-26.33h53.29l11.33,26.33h29.68l-53.61-123.34Zm-.8,69.88,14.84-34.14,15,34.14Z" transform="translate(-163.34 -103.21)"/><path class="cls-1" d="M1111.76,1114.81q-7.18-7.66-18.91-11.73a82.51,82.51,0,0,0-27-4.07,58,58,0,0,1-13.72-1.51q-6.22-1.51-8.62-3.91a4.43,4.43,0,0,1-.87-1.36,6.55,6.55,0,0,1-.4-2.63,9.36,9.36,0,0,1,.32-2,7.48,7.48,0,0,1,1.51-2.87,13.62,13.62,0,0,1,3.51-3,21.45,21.45,0,0,1,6.46-2.39,37.25,37.25,0,0,1,10.37-1.2,50,50,0,0,1,11,1.36,28.05,28.05,0,0,1,8.45,3.19,13.6,13.6,0,0,1,4,3.35l22.66-14.36a38.85,38.85,0,0,0-11.41-10.69,56.09,56.09,0,0,0-17.15-7,70,70,0,0,0-17.63-2.24,69,69,0,0,0-17.16,2.08q-12.77,3.2-20.9,11a30.63,30.63,0,0,0-7.58,10.37,37.27,37.27,0,0,0-3.11,12.6v.16q-1,14,8.3,23.62,8.45,8.46,23.29,12a72.89,72.89,0,0,0,10.93,1.6q5,.32,7.74.32a60.42,60.42,0,0,1,17.23,2.23q5.91,1.61,8.78,4.79a6.26,6.26,0,0,1,1.28,1.84,6.08,6.08,0,0,1,.32,3q-.81,6.69-9.58,10.69a42.5,42.5,0,0,1-10.29,3.35,33.81,33.81,0,0,1-8.86.64h-.79a40.24,40.24,0,0,1-8.78-1,42.29,42.29,0,0,1-7.9-2.55A35.16,35.16,0,0,1,1041,1145a13.27,13.27,0,0,1-3.75-3.83l-23.14,13.4a35.73,35.73,0,0,0,8.46,9.73,58.7,58.7,0,0,0,12.61,7.82,75.3,75.3,0,0,0,14.12,4.55,76.14,76.14,0,0,0,14.76,1.83h2.23a68.11,68.11,0,0,0,15.08-1.75,68.82,68.82,0,0,0,14.44-5,46.22,46.22,0,0,0,17.07-13.48,35.61,35.61,0,0,0,7.18-18.59,30,30,0,0,0-1.43-13.48A33.62,33.62,0,0,0,1111.76,1114.81Z" transform="translate(-163.34 -103.21)"/><polygon class="cls-1" points="969.48 950.32 969.48 977.45 1006.02 977.45 1006.02 1073.66 1033.14 1073.66 1033.14 977.45 1069.84 977.45 1069.84 950.32 969.48 950.32"/><polygon class="cls-1" points="468.16 232.96 468.44 630.87 250.22 507.68 250.05 112.95 184.98 77.16 185.33 548.43 534.85 749.91 534.85 269.6 468.16 232.96"/><polygon class="cls-2" points="884.64 476.51 604.66 633.12 604.66 310.53 884.67 158.49 884.81 78.32 534.85 269.6 534.85 332.45 535.04 332.35 534.85 749.91 884.64 548.36 884.64 476.51"/><polygon class="cls-3" points="138.01 567.1 137.61 9.79 534.87 228.29 932.23 11.1 932.04 567.02 534.87 795.87 138.01 567.1"/></svg>